<svg xmlns="http://www.w3.org/2000/svg" width="64" height="64" shape-rendering="geometricPrecision" text-rendering="geometricPrecision" image-rendering="optimizeQuality" fill-rule="evenodd" clip-rule="evenodd" viewBox="0 0 640 640"><path d="M106.643 365.39V258.712c117.249-119.175 76.347-117.072 215.412-27.343 120.698-108.39 107.352-93.532 265.173-132.096L640 86.375v147.722c-114.013 3.426-213.57 44.942-303.606 111.604-146.86-72.509-106.56-83.316-229.75 19.69zM640 596.05H50.54v-.13c-13.913-.012-26.528-5.67-35.658-14.764l-.059.06C5.776 572.167.143 559.541.12 545.521H0V43.948h65.056v487.045H640v65.056zM106.643 491.013v-80.21c121.868-123.876 79.56-114.486 229.751-21.378C429.171 332.743 527.605 278.235 640 262.986v228.026H106.643z"/></svg>