<svg xmlns="http://www.w3.org/2000/svg" width="64" height="64" shape-rendering="geometricPrecision" text-rendering="geometricPrecision" image-rendering="optimizeQuality" fill-rule="evenodd" clip-rule="evenodd" viewBox="0 0 640 640"><path d="M320-.012c150.344 0 272.259 57.06 272.259 127.407 0 70.36-121.915 127.42-272.259 127.42s-272.271-57.06-272.271-127.42C47.729 57.048 169.656-.012 320-.012zM47.717 426.206v97.82c48.438 172.053 526.967 138.781 544.566-8.799v-97.75c-23.918 162.038-506.286 173.72-544.566 8.73zM46.382 171.57v95.54c48.426 168.05 529.636 145.314 547.235 1.17v-95.47C569.7 331.08 84.65 332.71 46.382 171.57zm0 123.44v97.82c48.426 172.052 529.636 148.784 547.235 1.192v-97.737C569.7 458.32 84.65 459.999 46.382 295.008z"/></svg>