<svg xmlns="http://www.w3.org/2000/svg" width="64" height="64" viewBox="0 0 640 640" shape-rendering="geometricPrecision" text-rendering="geometricPrecision" image-rendering="optimizeQuality" fill-rule="evenodd" clip-rule="evenodd"><path d="M340.882 76.855l289.563 454.813c8.717 13.701 16.24 41.753 0 41.753H9.567c-16.24 0-8.728-28.052 0-41.753L299.118 76.855c8.728-13.7 33.036-13.689 41.764 0zM294.677 452.77h50.422v44.587h-50.422V452.77zm50.398-30.886h-50.386c-5.02-61.229-15.532-100.088-15.532-161.222 0-22.56 18.284-40.843 40.843-40.843 22.56 0 40.843 18.284 40.843 40.843 0 61.111-10.654 100.041-15.768 161.222z"/></svg>